<?xml version="1.0" standalone="no"?>
<!DOCTYPE svg PUBLIC "-//W3C//DTD SVG 20010904//EN"
 "http://www.w3.org/TR/2001/REC-SVG-20010904/DTD/svg10.dtd">
<svg version="1.0" xmlns="http://www.w3.org/2000/svg"
 width="400.000000pt" height="400.000000pt" viewBox="0 0 400.000000 400.000000"
 preserveAspectRatio="xMidYMid meet">

<g transform="translate(0.000000,400.000000) scale(0.100000,-0.100000)"
fill="#ffffff" stroke="none">
<path d="M1600 3610 l0 -130 -190 0 -190 0 0 -135 0 -135 -195 0 -195 0 0
-135 0 -135 -195 0 -195 0 0 -670 0 -670 195 0 195 0 0 -130 0 -130 193 -2
192 -3 3 -132 3 -133 579 0 580 0 2 -267 3 -268 193 -3 192 -2 0 -130 0 -130
195 0 195 0 0 130 0 130 193 2 192 3 3 268 2 267 -390 0 -390 0 0 265 0 265
193 2 192 3 3 268 2 267 195 0 195 0 -2 533 -3 532 -192 3 -192 2 -3 133 -3
132 -192 3 -193 2 0 130 0 130 -585 0 -585 0 0 -130z m780 -270 l0 -130 195 0
195 0 0 -670 0 -670 -195 0 -195 0 0 270 0 270 -387 -2 -388 -3 -3 -267 -2
-268 195 0 195 0 0 -130 0 -130 -195 0 -195 0 0 130 0 130 -190 0 -190 0 0
535 0 535 190 0 189 0 3 133 3 132 193 3 192 2 0 130 0 130 195 0 195 0 0
-130z"/>
</g>
</svg>
