<?xml version="1.0" standalone="no"?>
<!DOCTYPE svg PUBLIC "-//W3C//DTD SVG 20010904//EN"
 "http://www.w3.org/TR/2001/REC-SVG-20010904/DTD/svg10.dtd">
<svg version="1.0" xmlns="http://www.w3.org/2000/svg"
 width="936.000000pt" height="936.000000pt" viewBox="0 0 936.000000 936.000000"
 preserveAspectRatio="xMidYMid meet">

<g transform="translate(0.000000,936.000000) scale(0.100000,-0.100000)"
fill="#ffffff" stroke="none">
<path d="M1980 6605 l0 -145 -145 0 -145 0 0 -590 0 -590 -134 0 c-74 0 -141
-3 -150 -6 -14 -6 -16 -67 -16 -595 l0 -589 -150 0 -150 0 0 -590 0 -590 150
0 150 0 0 -150 0 -150 3105 0 3105 0 0 150 0 150 150 0 149 0 3 148 3 147 143
3 142 3 0 440 0 440 -147 -3 -148 -3 2 -437 3 -438 -150 0 -150 0 0 -150 0
-150 -3105 0 -3105 0 0 305 c0 238 3 304 13 301 6 -1 9 -1 5 1 -5 3 -8 133 -8
289 l0 284 141 0 c103 0 138 -3 133 -12 -4 -7 -3 -8 4 -4 9 5 12 91 12 307 l0
299 145 0 144 0 3 -145 3 -146 145 -2 145 -2 0 -145 0 -145 148 -3 147 -3 0
-149 0 -150 147 0 c151 0 182 -10 65 -21 l-67 -7 65 2 65 1 -3 -122 -3 -123
-697 -3 -697 -2 700 0 700 0 5 90 4 90 6 -95 5 -95 1770 -3 c974 -1 1776 0
1784 3 8 3 338 6 735 8 l721 2 -717 2 c-710 3 -718 3 -718 23 0 13 7 20 20 20
19 0 20 7 20 99 0 95 1 100 23 104 l22 4 -22 2 c-13 0 -23 6 -23 11 0 6 -11
10 -25 10 l-25 0 -2 -137 c-2 -77 -5 -10 -8 152 l-5 290 -148 3 -148 3 2 138
3 138 224 6 c124 4 324 7 444 7 l218 0 0 -150 0 -150 445 0 446 0 -3 148 -3
147 -442 3 -443 2 0 145 0 145 -442 2 -443 3 -3 148 -3 147 -445 0 -445 0 2
148 1 147 -293 0 -294 0 0 -149 0 -148 293 1 292 2 0 -150 0 -151 -145 0 -145
0 0 -148 0 -148 -147 2 -148 2 0 294 0 293 -147 3 -148 3 0 -151 0 -150 -150
0 -150 0 0 150 0 150 145 0 c131 0 145 2 145 18 1 9 2 76 3 147 l2 130 148 3
147 3 0 144 0 145 -145 0 -145 0 -2 443 -3 442 -147 3 -148 3 0 144 0 145
-145 0 -145 0 0 -145 0 -144 -147 -3 -148 -3 -3 -147 -3 -148 151 0 150 0 0
145 0 145 145 0 145 0 0 -440 0 -440 145 0 145 0 0 -144 0 -144 -290 -7 -290
-7 0 -144 0 -144 -150 0 -150 0 0 150 0 150 145 0 145 0 0 149 c0 83 3 152 8
154 4 3 6 68 4 146 l-3 140 -147 3 -147 3 -2 125 c0 69 -2 133 -2 143 -1 16
-22 17 -296 17 l-294 0 -3 148 -3 147 -147 3 -148 3 0 144 0 145 -295 0 -295
0 0 -145z m590 -300 l0 -145 145 0 145 0 0 -145 0 -145 -142 1 -143 1 3 137
c2 112 0 140 -12 150 -10 9 -54 11 -150 9 l-136 -3 0 143 0 142 145 0 145 0 0
-145z m889 -572 c0 -71 -3 -134 -7 -141 -7 -9 -72 -12 -293 -10 l-284 3 -3
138 -3 137 294 0 294 0 2 -127z m1 -898 l0 -145 150 0 150 0 0 -300 0 -300
-150 0 -150 0 0 295 0 295 -150 0 -150 0 0 150 0 150 150 0 150 0 0 -145z
m2660 -299 l0 -144 -295 -7 -295 -7 0 -144 0 -145 -147 3 -148 3 3 275 c3 197
7 277 15 282 9 6 9 8 0 8 -7 0 -13 5 -13 10 0 7 153 10 440 10 l440 0 0 -144z"/>
<path d="M5834 4647 c-2 -7 -3 -67 -2 -133 l3 -119 5 133 c3 72 4 132 2 132
-1 0 -5 -6 -8 -13z"/>
<path d="M4660 4700 c0 -5 5 -10 10 -10 6 0 10 5 10 10 0 6 -4 10 -10 10 -5 0
-10 -4 -10 -10z"/>
<path d="M1650 3983 l4 -68 6 65 6 65 5 -55 5 -55 2 58 c2 48 -1 57 -15 57
-16 0 -17 -8 -13 -67z"/>
<path d="M6542 3775 c-11 -13 17 -15 228 -15 185 0 240 3 240 13 0 9 3 8 9 -2
7 -11 9 -11 14 0 4 10 6 10 6 2 1 -15 81 -18 81 -3 0 6 139 11 383 13 226 1
111 3 -283 4 -573 2 -667 0 -678 -12z"/>
<path d="M2565 3770 c-3 -5 1 -10 9 -10 9 0 16 5 16 10 0 6 -4 10 -9 10 -6 0
-13 -4 -16 -10z"/>
<path d="M7848 3763 c6 -2 18 -2 25 0 6 3 1 5 -13 5 -14 0 -19 -2 -12 -5z"/>
<path d="M7848 3723 c6 -2 18 -2 25 0 6 3 1 5 -13 5 -14 0 -19 -2 -12 -5z"/>
<path d="M1600 3590 c0 -6 33 -10 80 -10 47 0 80 4 80 10 0 6 -33 10 -80 10
-47 0 -80 -4 -80 -10z"/>
<path d="M1920 3580 c0 -18 7 -20 80 -20 73 0 80 2 80 20 0 18 -7 20 -80 20
-73 0 -80 -2 -80 -20z"/>
<path d="M2240 3580 c0 -18 7 -20 80 -20 73 0 80 2 80 20 0 18 -7 20 -80 20
-73 0 -80 -2 -80 -20z"/>
<path d="M2560 3580 c0 -18 7 -20 80 -20 73 0 80 2 80 20 0 18 -7 20 -80 20
-73 0 -80 -2 -80 -20z"/>
<path d="M6560 3590 c0 -6 33 -10 80 -10 47 0 80 4 80 10 0 6 -33 10 -80 10
-47 0 -80 -4 -80 -10z"/>
<path d="M6880 3590 c0 -6 33 -10 80 -10 47 0 80 4 80 10 0 6 -33 10 -80 10
-47 0 -80 -4 -80 -10z"/>
<path d="M7200 3590 c0 -6 33 -10 80 -10 47 0 80 4 80 10 0 6 -33 10 -80 10
-47 0 -80 -4 -80 -10z"/>
<path d="M7520 3590 c0 -6 33 -10 80 -10 47 0 80 4 80 10 0 6 -33 10 -80 10
-47 0 -80 -4 -80 -10z"/>
</g>
</svg>
